# xmcd CD database file
#
# Track frame offsets:
#	150
#	23736
#	50868
#	71638
#	87562
#	114662
#	130650
#	151505
#	175387
#	201995
#	220275
#	240084
#	261630
#
# Disc length: 3722 seconds
#
# Revision: 0
# Processed by: cddbd v1.5.2PL0 Copyright (c) Steve Scherf et al.
# Submitted via: CDex 1.51
#
DISCID=bb0e880d
DTITLE=Jimmy Thackery - Extra Jimmies
DYEAR=2014
DGENRE=Blues
TTITLE0=Write If You Find Love
TTITLE1=You Upset Me Baby
TTITLE2=Rude Mood
TTITLE3=I Got To Be Strong
TTITLE4=Lickin' Gravy
TTITLE5=Take Me With You When You Go
TTITLE6=Love To Ride
TTITLE7=Trouble Man
TTITLE8=I Wouldn't Change A Thing
TTITLE9=Honey Hush
TTITLE10=Flying Low
TTITLE11=Empty Arms Motel
TTITLE12=Monkey
EXTD=YEAR: 2014
EXTT0=
EXTT1=
EXTT2=
EXTT3=
EXTT4=
EXTT5=
EXTT6=
EXTT7=
EXTT8=
EXTT9=
EXTT10=
EXTT11=
EXTT12=
PLAYORDER=
